<svg width="142" height="24" viewBox="0 0 142 24" fill="none" xmlns="http://www.w3.org/2000/svg">
<g clip-path="url(#clip0_474_1052)">
<g clip-path="url(#clip1_474_1052)">
<path d="M46.5117 0.362829L38.5764 8.30347L42.2878 12.0173L50.2231 4.0767L46.5117 0.362829Z" fill="#5D97FF"/>
<path d="M42.2875 12.0171L38.5762 15.731L46.5115 23.6716L50.2228 19.9577L42.2875 12.0171Z" fill="#5D97FF"/>
<path fill-rule="evenodd" clip-rule="evenodd" d="M30.6414 0.360352L26.93 4.07422L34.8651 12.0146L26.9276 19.9576L30.6389 23.6714L38.5765 15.7285L38.5766 15.7286L42.288 12.0147L38.5766 8.30085L38.5766 8.30089L30.6414 0.360352Z" fill="#161E35"/>
<path d="M64.3925 18.5682C63.3866 18.5693 62.3936 18.3414 61.4888 17.9016C60.584 17.4618 59.7911 16.8216 59.1702 16.0297C58.5493 15.2378 58.1166 14.3148 57.905 13.3307C57.6934 12.3467 57.7085 11.3273 57.949 10.3499C58.1894 9.37254 58.6491 8.46274 59.2931 7.68947C59.937 6.9162 60.7485 6.29975 61.6658 5.88682C62.5832 5.4739 63.5825 5.27533 64.5879 5.30616C65.5933 5.337 66.5786 5.59643 67.4689 6.0648L70.0969 1.51127C68.2898 0.518568 66.2556 0.013558 64.1943 0.0458944C62.133 0.0782308 60.1156 0.646801 58.3404 1.69571C56.5653 2.74461 55.0934 4.23774 54.0697 6.0283C53.0459 7.81886 52.5054 9.84521 52.5013 11.9081C52.4972 13.971 53.0297 15.9995 54.0464 17.7941C55.0631 19.5887 56.529 21.0877 58.3 22.1436C60.071 23.1995 62.0862 23.776 64.1473 23.8165C66.2084 23.857 68.2446 23.3601 70.0557 22.3745L67.4277 17.8186C66.4907 18.3085 65.4497 18.5656 64.3925 18.5682Z" fill="#161E35"/>
<path d="M94.9923 11.9358C94.9923 9.58471 94.2956 7.28645 92.9903 5.33161C91.685 3.37677 89.8298 1.85316 87.6591 0.953447C85.4885 0.0537335 83.1 -0.181671 80.7956 0.276999C78.4913 0.735669 76.3746 1.86781 74.7133 3.53027C73.052 5.19272 71.9206 7.31082 71.4622 9.6167C71.0038 11.9226 71.2391 14.3127 72.1382 16.4848C73.0373 18.6569 74.5599 20.5134 76.5134 21.8196C78.4669 23.1258 80.7637 23.823 83.1132 23.823C83.3023 23.823 83.4889 23.8181 83.6732 23.8084H83.7798C83.9415 23.8084 84.1031 23.7963 84.2647 23.772H84.3423C84.7302 23.7332 85.1132 23.6726 85.4866 23.5974H85.5011C85.6902 23.5585 85.8769 23.5149 86.0636 23.4664C87.371 23.1291 88.6115 22.5712 89.7316 21.8167V23.1413H94.956V12.4889C94.9851 12.307 94.9923 12.1226 94.9923 11.9358ZM76.4996 11.9358C76.501 10.6257 76.8906 9.34552 77.6189 8.25695C78.3473 7.16839 79.3819 6.32034 80.5918 5.82C81.8017 5.31967 83.1327 5.1895 84.4165 5.44596C85.7004 5.70242 86.8794 6.33399 87.8046 7.26084C88.7298 8.1877 89.3597 9.36822 89.6146 10.6532C89.8694 11.9382 89.7379 13.2699 89.2366 14.4801C88.7353 15.6903 87.8866 16.7246 86.798 17.4523C85.7094 18.18 84.4296 18.5683 83.1204 18.5683C82.2503 18.568 81.3888 18.3962 80.5851 18.0627C79.7813 17.7292 79.0511 17.2406 78.4361 16.6247C77.821 16.0088 77.3333 15.2777 77.0006 14.4732C76.6679 13.6687 76.4969 12.8065 76.4972 11.9358H76.4996Z" fill="#161E35"/>
<path d="M141.331 11.8873C141.329 9.4301 140.567 7.0338 139.148 5.0281C137.73 3.02239 135.725 1.50585 133.41 0.687138C131.095 -0.131578 128.583 -0.212231 126.22 0.456276C123.857 1.12478 121.759 2.5096 120.215 4.42018C118.671 2.50864 116.573 1.12295 114.21 0.453859C111.847 -0.215234 109.334 -0.134832 107.018 0.683995C104.702 1.50282 102.697 3.01982 101.279 5.02615C99.86 7.03249 99.0977 9.42952 99.0967 11.8873C99.0967 11.9067 99.0967 11.9237 99.0967 11.9431V23.134H104.333V12.1566V11.8848C104.333 11.8606 104.333 11.8363 104.333 11.8121C104.316 10.928 104.476 10.0494 104.802 9.22773C105.129 8.40603 105.616 7.65771 106.234 7.02651C106.853 6.39532 107.592 5.89392 108.406 5.55164C109.221 5.20936 110.096 5.03307 110.98 5.03307C111.863 5.03307 112.738 5.20936 113.553 5.55164C114.367 5.89392 115.106 6.39532 115.725 7.02651C116.344 7.65771 116.83 8.40603 117.157 9.22773C117.483 10.0494 117.643 10.928 117.626 11.8121C117.626 11.8873 117.626 11.9601 117.626 12.0353V23.1437H122.802V11.8848C122.802 11.8606 122.802 11.8363 122.802 11.8121C122.802 10.0466 123.503 8.35338 124.75 7.10498C125.998 5.85659 127.69 5.15524 129.454 5.15524C131.218 5.15524 132.911 5.85659 134.158 7.10498C135.406 8.35338 136.106 10.0466 136.106 11.8121C136.106 11.8873 136.106 11.9601 136.106 12.0353V12.1663V23.1437H141.343V11.9431L141.331 11.8873Z" fill="#161E35"/>
<path d="M23.756 0.868652H18.5194V12.0281C18.5194 12.0523 18.5194 12.0766 18.5194 12.1008C18.5194 13.8638 17.8196 15.5545 16.5738 16.8011C15.3281 18.0476 13.6385 18.748 11.8768 18.748C10.115 18.748 8.42544 18.0476 7.17971 16.8011C5.93397 15.5545 5.23412 13.8638 5.23412 12.1008C5.23412 12.0766 5.23412 12.0523 5.23412 12.0281V0.868652H0V12.0572V12.1154C0 15.2681 1.25155 18.2916 3.47933 20.5209C5.70712 22.7502 8.72864 24.0026 11.8792 24.0026C15.0298 24.0026 18.0513 22.7502 20.2791 20.5209C22.5068 18.2916 23.7584 15.2681 23.7584 12.1154C23.7584 12.096 23.7584 12.0766 23.7584 12.0572L23.756 0.868652Z" fill="#161E35"/>
</g>
</g>
<defs>
<clipPath id="clip0_474_1052">
<rect width="142" height="24" fill="white"/>
</clipPath>
<clipPath id="clip1_474_1052">
<rect width="141.333" height="24" fill="white"/>
</clipPath>
</defs>
</svg>
